<svg class="wolf" xmlns="http://www.w3.org/2000/svg" version="1.0" width="50px" height="50px" viewBox="0 0 900.000000 900.000000" preserveAspectRatio="xMidYMid meet">
    
    <style type="text/css">
        <![CDATA[
        .wolf {
            stroke: black;
            stroke-width: 15px;
            fill: black;
        }
        ]]>
    </style>
    
                    <g transform="translate(0.000000,900.000000) scale(0.100000,-0.100000)">
                        <path d="M5713 8308 c-20 -9 -23 -19 -23 -64 0 -30 -5 -73 -10 -96 -6 -24 -19 -89 -30 -146 -11 -57 -31 -131 -46 -165 -14 -34 -30 -77 -35 -94 -6 -19 -46 -72 -93 -120 -128 -137 -126 -132 -126 -265 -1 -162 -15 -220 -76 -304 -28 -38 -61 -87 -74 -109 -14 -22 -35 -51 -48 -65 -68 -73 -116 -141 -132 -190 -40 -123 -72 -231 -68 -235 2 -3 20 8 39 24 52 42 235 151 254 151 15 0 16 -6 10 -32 -4 -18 -10 -51 -14 -73 -5 -28 -27 -66 -73 -124 -36 -46 -86 -120 -111 -165 -49 -86 -138 -185 -225 -251 l-54 -40 32 -3 31 -3 -27 -36 -27 -36 24 7 c73 23 73 23 65 -24 -4 -23 -12 -53 -19 -66 -21 -41 -118 -97 -219 -128 -32 -10 -58 -21 -58 -25 0 -4 7 -16 15 -27 8 -10 15 -25 15 -32 0 -7 -42 -57 -93 -110 -96 -100 -114 -130 -143 -242 -35 -131 -46 -147 -123 -183 -45 -20 -70 -38 -71 -49 0 -9 -14 -21 -32 -27 -17 -6 -74 -37 -126 -68 -52 -31 -138 -71 -190 -89 -53 -19 -112 -46 -131 -62 -20 -16 -58 -42 -86 -57 -46 -28 -48 -30 -25 -35 24 -6 23 -7 -16 -28 -40 -20 -126 -44 -206 -57 -41 -6 -47 -15 -23 -35 14 -11 12 -15 -12 -30 -16 -9 -59 -29 -98 -45 -135 -53 -239 -114 -223 -130 3 -4 15 -2 26 4 12 6 28 11 36 11 12 0 11 -6 -5 -32 -50 -78 -129 -218 -129 -227 0 -40 -260 -333 -350 -393 -25 -17 -72 -56 -105 -88 -51 -48 -72 -61 -135 -80 -41 -12 -82 -30 -90 -41 -8 -10 -55 -30 -104 -44 -85 -24 -102 -25 -365 -28 l-276 -2 -120 37 c-66 20 -158 52 -205 72 -46 20 -86 36 -87 36 -14 0 86 -159 144 -227 39 -47 69 -92 66 -99 -7 -20 34 -96 83 -152 27 -31 70 -63 116 -88 l73 -39 -35 -5 -35 -6 34 -18 c23 -12 63 -20 120 -23 114 -6 128 -9 134 -34 6 -21 9 -21 128 -14 67 4 145 13 173 20 28 7 53 12 54 10 2 -2 -21 -20 -52 -41 -31 -20 -53 -40 -50 -45 3 -5 13 -5 23 1 10 5 76 27 147 48 71 22 145 49 164 61 19 11 44 21 56 21 23 0 274 122 313 152 34 26 44 22 26 -12 -30 -58 4 -29 38 33 48 84 87 136 87 114 0 -32 21 -17 41 28 11 25 24 45 28 45 4 0 12 -15 18 -32 6 -23 14 -32 26 -30 13 2 17 -5 17 -28 0 -39 -65 -104 -199 -198 -93 -64 -171 -133 -171 -151 0 -5 14 -24 31 -42 27 -29 32 -42 35 -94 3 -61 -28 -308 -47 -379 -9 -34 -8 -42 7 -53 28 -20 34 -16 34 22 0 40 12 45 34 14 10 -15 27 -22 53 -24 21 -1 70 -13 108 -28 79 -29 79 -29 120 51 11 21 31 55 46 77 14 22 34 67 44 100 47 161 69 200 119 209 20 4 72 31 116 61 44 30 83 55 88 55 5 0 17 9 27 20 10 12 26 19 34 17 9 -2 48 18 86 45 95 64 101 70 107 96 l6 23 -34 -20 -34 -20 0 24 c0 14 4 25 8 25 4 0 15 12 24 28 9 15 25 36 35 47 38 41 50 72 55 133 2 34 2 62 -1 62 -2 0 -19 -5 -38 -12 -18 -6 -35 -9 -39 -5 -4 3 24 39 61 79 87 94 134 188 85 173 -16 -5 -20 -2 -20 19 0 14 5 26 10 26 6 0 10 5 10 11 0 5 18 36 39 68 22 31 53 83 70 114 29 53 29 57 11 57 -11 0 -20 3 -20 6 0 9 185 194 194 194 4 0 22 10 39 23 39 27 95 53 147 67 24 6 41 18 45 30 3 10 24 32 47 49 55 41 84 87 90 144 6 47 5 49 -26 63 -17 8 -38 19 -47 26 -13 9 -24 8 -50 -4 -58 -27 -93 -29 -127 -8 -48 29 -42 55 33 141 49 56 70 89 86 139 24 75 41 92 104 111 33 10 45 18 45 33 0 10 4 35 10 55 5 20 17 70 26 111 20 89 73 201 106 222 13 8 50 25 83 38 33 13 66 28 73 35 7 6 19 40 28 76 15 63 26 95 47 134 6 11 13 57 15 102 5 98 18 116 62 90 15 -9 37 -17 48 -17 11 0 33 -11 49 -23 15 -13 48 -36 73 -50 25 -15 56 -37 70 -49 14 -13 37 -31 53 -41 34 -22 37 -52 5 -42 -13 4 -26 8 -31 9 -4 0 -8 -54 -10 -122 -2 -118 -1 -122 19 -122 12 0 36 10 55 23 32 22 34 27 31 71 -3 44 -2 47 16 37 10 -5 24 -17 32 -25 19 -24 43 -21 35 4 -9 29 10 25 46 -10 29 -27 31 -34 27 -82 -3 -34 -18 -80 -42 -128 -52 -104 -66 -147 -66 -206 0 -62 28 -110 83 -139 41 -22 47 -35 17 -35 -22 0 -24 -3 -12 -28 36 -72 61 -134 73 -171 9 -30 31 -61 68 -98 43 -42 55 -61 57 -89 2 -19 12 -52 23 -72 11 -20 32 -63 46 -96 14 -32 36 -74 50 -93 l24 -36 5 39 c18 114 30 170 43 182 23 23 16 85 -12 112 -14 13 -25 33 -25 46 0 12 -6 24 -14 27 -15 6 -66 93 -66 114 0 7 -10 17 -23 22 -32 13 -44 30 -52 79 -5 34 -10 41 -20 32 -20 -17 -26 3 -16 56 5 27 7 89 4 137 l-6 88 -22 -21 c-12 -11 -24 -20 -27 -20 -13 0 -15 67 -3 96 22 53 29 115 13 112 -10 -2 -13 18 -13 93 0 69 -3 95 -11 92 -19 -7 -25 14 -9 27 8 7 15 20 15 29 0 9 4 21 8 27 10 11 52 113 52 126 0 4 -11 6 -25 2 -31 -8 -32 4 0 34 16 15 26 39 30 70 3 26 8 59 10 75 5 30 2 32 -26 17 -15 -8 -19 -7 -19 4 0 9 24 33 54 56 30 22 66 55 80 73 30 39 35 73 10 63 -32 -12 -31 5 1 37 45 45 58 99 45 179 -15 95 -12 171 12 300 20 112 21 119 5 168 -16 50 -16 52 5 81 18 24 29 29 64 29 46 0 54 9 54 66 0 27 10 47 42 84 45 52 77 66 127 55 25 -5 29 -11 34 -55 3 -28 13 -65 21 -82 8 -18 19 -51 26 -73 15 -51 21 -68 54 -136 25 -55 44 -76 134 -155 57 -49 65 -66 73 -149 11 -107 19 -129 84 -207 77 -93 169 -182 173 -168 2 5 12 0 23 -12 l18 -23 1 60 c0 33 -7 95 -15 138 -19 97 -19 100 0 93 8 -3 15 -3 15 -1 0 7 -41 78 -70 120 -37 54 -70 121 -70 141 0 13 7 15 35 12 19 -2 35 -2 35 2 -1 3 -18 17 -40 32 -30 21 -40 36 -45 65 -4 21 -17 71 -29 112 l-23 73 38 -6 c61 -10 40 15 -54 62 -71 36 -89 50 -125 101 -43 62 -48 97 -11 88 31 -8 22 11 -16 35 -22 15 -45 43 -61 76 -23 50 -25 63 -25 197 1 153 -20 280 -62 375 -42 98 -58 217 -37 289 9 32 7 37 -28 73 -35 36 -40 38 -91 36 -50 -3 -56 -1 -67 22 -8 14 -16 43 -19 65 -5 31 -18 51 -58 89 -77 72 -144 93 -204 64z" />
                        <path d="M6578 5750 c11 -34 32 -65 69 -102 l53 -52 0 42 c0 35 3 40 18 35 9 -4 24 -15 33 -25 24 -27 31 -22 27 19 -3 39 -18 50 -133 99 -89 38 -85 39 -67 -16z" />
                        <path d="M6195 3010 c-11 -5 -43 -9 -70 -9 -29 -1 -60 -8 -73 -17 -37 -26 -163 -74 -194 -74 -36 0 -62 -14 -100 -52 -20 -21 -34 -28 -46 -22 -43 19 -83 13 -202 -27 -69 -23 -144 -42 -166 -42 -41 0 -42 -2 -50 -40 -9 -39 -12 -41 -91 -75 -62 -25 -83 -39 -83 -53 0 -10 -9 -23 -19 -29 -11 -5 -25 -16 -33 -23 -40 -39 -95 -59 -173 -64 -44 -3 -84 -9 -90 -13 -17 -13 -106 -29 -190 -35 -104 -7 -284 -23 -361 -31 -40 -4 -69 -2 -83 6 -18 9 -28 8 -57 -9 -19 -12 -43 -21 -53 -21 -10 0 -45 -14 -79 -31 -34 -17 -66 -28 -71 -25 -5 3 -23 3 -39 0 -24 -5 -32 -13 -37 -36 -5 -19 -20 -37 -47 -54 -62 -39 -64 -39 -98 10 -17 25 -38 46 -46 46 -21 0 -106 -44 -195 -102 -43 -27 -83 -46 -91 -43 -11 4 -17 -3 -22 -26 -10 -53 -7 -148 7 -170 10 -18 9 -23 -17 -44 -16 -13 -56 -31 -88 -40 l-60 -17 7 -48 c6 -47 5 -51 -25 -79 -18 -16 -52 -34 -76 -40 -82 -21 -232 -10 -289 21 -34 19 -128 36 -183 33 -64 -4 -157 -48 -241 -115 l-56 -46 -12 -84 c-21 -154 -33 -235 -38 -251 -7 -20 -41 -38 -174 -89 -140 -54 -169 -73 -177 -115 -8 -43 -34 -67 -123 -110 -54 -26 -72 -40 -69 -53 3 -16 164 -17 2927 -17 1607 0 2925 3 2927 7 3 4 -2 63 -11 130 -9 68 -18 163 -19 212 -3 84 -5 90 -29 103 -14 7 -40 15 -57 16 -54 6 -111 115 -78 148 24 23 40 59 53 117 13 53 12 56 -11 78 -12 13 -32 24 -43 24 -20 0 -71 74 -71 104 0 20 76 93 115 111 17 8 39 22 50 32 23 20 88 149 83 163 -2 5 -27 34 -56 64 l-53 54 34 54 c79 124 123 239 154 398 4 22 -8 37 -91 108 -83 71 -101 82 -133 82 -21 0 -67 5 -103 11 -36 7 -103 13 -150 14 -145 4 -404 25 -434 35 -16 6 -46 10 -67 10 -40 0 -89 17 -89 32 0 4 -11 8 -24 8 -13 0 -29 6 -35 14 -6 7 -26 17 -44 20 -54 11 -251 16 -272 6z" />
                    </g>
                </svg>